<?xml version="1.0" standalone="no"?><!DOCTYPE svg PUBLIC "-//W3C//DTD SVG 1.1//EN" "http://www.w3.org/Graphics/SVG/1.1/DTD/svg11.dtd"><svg t="1719802274396" class="icon" viewBox="0 0 1024 1024" version="1.1" xmlns="http://www.w3.org/2000/svg" p-id="3900" xmlns:xlink="http://www.w3.org/1999/xlink" width="200" height="200"><path d="M872.4 871.7V569.2h48V477L523.8 340.5v-70.1l71.7-109.9h-170l71.7 109.9v69.9L100.5 476.7v3.5h-0.3v88.9h48.3v302.5h-48.3v82.9h820.4v-82.9h-48.2zM558 182.4l-48 71.1-48-71.1h96z m28.4 689.3h-155V701.8h155v169.9z" p-id="3901"></path><path d="M680.7 160.4c0 30.3-14 57.8-36.8 77.7l18.2 15.9c27.3-24 44.2-57.1 44.2-93.6s-16.9-69.6-44.2-93.6l-18.2 15.9c22.8 19.9 36.8 47.4 36.8 77.7z" p-id="3902"></path><path d="M605.1 204.3l17.7 15.4c17.3-15.2 28-36.1 28-59.2s-10.7-44.1-28-59.2l-17.7 15.4c12.8 11.2 20.7 26.7 20.7 43.8 0 17-7.9 32.5-20.7 43.8z" p-id="3903"></path></svg>